<svg xmlns="http://www.w3.org/2000/svg" xmlns:xlink="http://www.w3.org/1999/xlink" width="500" zoomAndPan="magnify" viewBox="0 0 375 374.999991" height="500" preserveAspectRatio="xMidYMid meet" version="1.0"><path fill="#10576d" d="M 145 88.859375 C 149.953125 88.859375 153.972656 84.839844 153.972656 79.882812 L 153.972656 62.511719 C 153.972656 40.039062 172.28125 21.734375 194.824219 21.734375 C 217.367188 21.734375 235.671875 40.039062 235.671875 62.511719 L 235.671875 79.882812 C 235.671875 84.839844 239.691406 88.859375 244.644531 88.859375 C 249.601562 88.859375 253.621094 84.839844 253.621094 79.882812 L 253.621094 64.953125 C 253.621094 33.578125 230.074219 6.011719 198.699219 3.929688 C 164.597656 1.703125 136.027344 28.839844 136.027344 62.511719 L 136.027344 79.882812 C 136.027344 84.839844 140.046875 88.859375 145 88.859375 Z M 145 88.859375 " fill-opacity="1" fill-rule="nonzero"/><path fill="#db924b" d="M 333.738281 322.179688 L 313.996094 130.136719 C 312.417969 114.847656 299.566406 103.289062 284.203125 103.289062 L 105.441406 103.289062 C 90.078125 103.289062 77.226562 114.917969 75.648438 130.136719 L 70.695312 177.953125 C 67.394531 210.042969 97.902344 235.097656 128.703125 225.691406 L 145.429688 220.597656 C 164.453125 214.78125 185.707031 224.402344 193.171875 245.507812 C 195.757812 252.832031 195.398438 260.871094 193.101562 268.335938 L 185.707031 292.460938 C 175.511719 325.769531 200.421875 359.441406 235.242188 359.441406 L 300.140625 359.441406 C 320.171875 359.367188 335.820312 342.066406 333.738281 322.179688 Z M 333.738281 322.179688 " fill-opacity="1" fill-rule="nonzero"/><path fill="#10576d" d="M 151.746094 241.128906 L 55.042969 270.632812 C 40.972656 274.941406 39.96875 294.46875 53.535156 300.210938 L 76.582031 309.90625 C 88.785156 315.074219 98.550781 324.765625 103.71875 337.042969 L 113.410156 360.085938 C 119.15625 373.65625 138.683594 372.652344 142.988281 358.578125 L 172.496094 261.875 C 176.445312 249.167969 164.527344 237.25 151.746094 241.128906 Z M 151.746094 241.128906 " fill-opacity="1" fill-rule="nonzero"/></svg>