<svg xmlns="http://www.w3.org/2000/svg" xmlns:xlink="http://www.w3.org/1999/xlink" width="600" zoomAndPan="magnify"
  viewBox="0 0 450 149.999998" height="200" preserveAspectRatio="xMidYMid meet" version="1.0">
  <defs>
    <g />
  </defs>
  <path fill="#10576d"
    d="M 46.960938 38.0625 C 48.816406 38.0625 50.324219 36.554688 50.324219 34.699219 L 50.324219 28.195312 C 50.324219 19.78125 57.179688 12.925781 65.617188 12.925781 C 74.058594 12.925781 80.914062 19.78125 80.914062 28.195312 L 80.914062 34.699219 C 80.914062 36.554688 82.421875 38.0625 84.273438 38.0625 C 86.128906 38.0625 87.636719 36.554688 87.636719 34.699219 L 87.636719 29.109375 C 87.636719 17.363281 78.816406 7.039062 67.070312 6.261719 C 54.300781 5.425781 43.601562 15.589844 43.601562 28.195312 L 43.601562 34.699219 C 43.601562 36.554688 45.109375 38.0625 46.960938 38.0625 Z M 46.960938 38.0625 "
    fill-opacity="1" fill-rule="nonzero" />
  <path fill="#db924b"
    d="M 117.636719 125.429688 L 110.242188 53.519531 C 109.652344 47.792969 104.839844 43.464844 99.085938 43.464844 L 32.152344 43.464844 C 26.398438 43.464844 21.585938 47.820312 20.996094 53.519531 L 19.140625 71.421875 C 17.902344 83.4375 29.328125 92.820312 40.859375 89.296875 L 47.125 87.390625 C 54.246094 85.210938 62.203125 88.816406 65 96.71875 C 65.96875 99.460938 65.832031 102.472656 64.972656 105.265625 L 62.203125 114.296875 C 58.386719 126.773438 67.714844 139.378906 80.753906 139.378906 L 105.054688 139.378906 C 112.554688 139.351562 118.414062 132.875 117.636719 125.429688 Z M 117.636719 125.429688 "
    fill-opacity="1" fill-rule="nonzero" />
  <path fill="#10576d"
    d="M 49.488281 95.078125 L 13.28125 106.125 C 8.011719 107.738281 7.632812 115.050781 12.714844 117.203125 L 21.34375 120.832031 C 25.914062 122.765625 29.570312 126.394531 31.503906 130.992188 L 35.132812 139.621094 C 37.285156 144.703125 44.597656 144.324219 46.210938 139.058594 L 57.257812 102.847656 C 58.738281 98.089844 54.273438 93.625 49.488281 95.078125 Z M 49.488281 95.078125 "
    fill-opacity="1" fill-rule="nonzero" />
  <g fill="#ef8121" fill-opacity="0.4">
    <g transform="translate(138.860489, 118.13915)">
      <g>
        <path
          d="M 19.265625 0.640625 C 13.054688 0.640625 8.570312 -0.894531 5.8125 -3.96875 C 3.050781 -7.050781 1.671875 -12.015625 1.671875 -18.859375 L 1.671875 -25.546875 L 15.125 -25.546875 L 15.125 -17.03125 C 15.125 -13.632812 16.207031 -11.9375 18.375 -11.9375 C 19.601562 -11.9375 20.453125 -12.289062 20.921875 -13 C 21.398438 -13.71875 21.640625 -14.925781 21.640625 -16.625 C 21.640625 -18.851562 21.375 -20.695312 20.84375 -22.15625 C 20.3125 -23.613281 19.632812 -24.832031 18.8125 -25.8125 C 18 -26.800781 16.53125 -28.332031 14.40625 -30.40625 L 8.515625 -36.28125 C 3.953125 -40.738281 1.671875 -45.675781 1.671875 -51.09375 C 1.671875 -56.925781 3.007812 -61.367188 5.6875 -64.421875 C 8.363281 -67.472656 12.273438 -69 17.421875 -69 C 23.578125 -69 28.007812 -67.363281 30.71875 -64.09375 C 33.425781 -60.832031 34.78125 -55.726562 34.78125 -48.78125 L 20.84375 -48.78125 L 20.765625 -53.46875 C 20.765625 -54.375 20.515625 -55.09375 20.015625 -55.625 C 19.515625 -56.15625 18.8125 -56.421875 17.90625 -56.421875 C 16.84375 -56.421875 16.046875 -56.128906 15.515625 -55.546875 C 14.984375 -54.960938 14.71875 -54.164062 14.71875 -53.15625 C 14.71875 -50.925781 15.992188 -48.617188 18.546875 -46.234375 L 26.5 -38.59375 C 28.351562 -36.789062 29.890625 -35.078125 31.109375 -33.453125 C 32.335938 -31.835938 33.320312 -29.929688 34.0625 -27.734375 C 34.800781 -25.535156 35.171875 -22.921875 35.171875 -19.890625 C 35.171875 -13.148438 33.9375 -8.039062 31.46875 -4.5625 C 29 -1.09375 24.929688 0.640625 19.265625 0.640625 Z M 19.265625 0.640625 " />
      </g>
    </g>
  </g>
  <g fill="#ef8121" fill-opacity="0.4">
    <g transform="translate(175.548294, 118.13915)">
      <g>
        <path
          d="M 2.78125 -68.75 L 17.109375 -68.75 L 17.109375 -52.515625 C 18.597656 -56.765625 21.4375 -58.890625 25.625 -58.890625 C 29.550781 -58.890625 32.519531 -57.640625 34.53125 -55.140625 C 36.550781 -52.648438 37.5625 -49.226562 37.5625 -44.875 L 37.5625 0 L 23.640625 0 L 23.640625 -44 C 23.640625 -45.28125 23.347656 -46.316406 22.765625 -47.109375 C 22.179688 -47.898438 21.332031 -48.296875 20.21875 -48.296875 C 19.257812 -48.296875 18.5 -47.882812 17.9375 -47.0625 C 17.382812 -46.25 17.109375 -45.257812 17.109375 -44.09375 L 17.109375 0 L 2.78125 0 Z M 2.78125 -68.75 " />
      </g>
    </g>
  </g>
  <g fill="#ef8121" fill-opacity="0.4">
    <g transform="translate(215.73775, 118.13915)">
      <g>
        <path
          d="M 19.734375 0.640625 C 8.117188 0.640625 2.3125 -5.378906 2.3125 -17.421875 L 2.3125 -40.828125 C 2.3125 -46.335938 3.863281 -50.722656 6.96875 -53.984375 C 10.070312 -57.253906 14.328125 -58.890625 19.734375 -58.890625 C 25.148438 -58.890625 29.40625 -57.253906 32.5 -53.984375 C 35.601562 -50.722656 37.15625 -46.335938 37.15625 -40.828125 L 37.15625 -17.421875 C 37.15625 -5.378906 31.347656 0.640625 19.734375 0.640625 Z M 19.734375 -10.109375 C 20.847656 -10.109375 21.671875 -10.503906 22.203125 -11.296875 C 22.734375 -12.097656 23 -13.1875 23 -14.5625 L 23 -43.046875 C 23 -46.441406 21.910156 -48.140625 19.734375 -48.140625 C 17.554688 -48.140625 16.46875 -46.441406 16.46875 -43.046875 L 16.46875 -14.5625 C 16.46875 -13.1875 16.734375 -12.097656 17.265625 -11.296875 C 17.796875 -10.503906 18.617188 -10.109375 19.734375 -10.109375 Z M 19.734375 -10.109375 " />
      </g>
    </g>
  </g>
  <g fill="#ef8121" fill-opacity="0.4">
    <g transform="translate(255.290547, 118.13915)">
      <g>
        <path
          d="M 2.78125 -58.25 L 16.953125 -58.25 L 16.953125 -55.140625 C 18.960938 -57.640625 21.75 -58.890625 25.3125 -58.890625 C 29.8125 -58.890625 32.953125 -57.375 34.734375 -54.34375 C 36.515625 -51.320312 37.40625 -47.132812 37.40625 -41.78125 L 37.40625 -20.21875 C 37.40625 -15.65625 37.140625 -11.925781 36.609375 -9.03125 C 36.078125 -6.132812 34.910156 -3.796875 33.109375 -2.015625 C 31.304688 -0.242188 28.570312 0.640625 24.90625 0.640625 C 21.40625 0.640625 18.753906 -0.34375 16.953125 -2.3125 L 16.953125 11.625 L 2.78125 11.625 Z M 20.296875 -10.1875 C 21.566406 -10.1875 22.382812 -10.769531 22.75 -11.9375 C 23.125 -13.101562 23.3125 -14.800781 23.3125 -17.03125 L 23.3125 -41.78125 C 23.3125 -43.789062 23.125 -45.328125 22.75 -46.390625 C 22.382812 -47.453125 21.539062 -47.984375 20.21875 -47.984375 C 18.039062 -47.984375 16.953125 -45.96875 16.953125 -41.9375 L 16.953125 -16.390625 C 16.953125 -14.429688 17.175781 -12.90625 17.625 -11.8125 C 18.070312 -10.726562 18.960938 -10.1875 20.296875 -10.1875 Z M 20.296875 -10.1875 " />
      </g>
    </g>
  </g>
  <g fill="#db924b" fill-opacity="1">
    <g transform="translate(138.860489, 118.13915)">
      <g>
        <path
          d="M 19.265625 0.640625 C 13.054688 0.640625 8.570312 -0.894531 5.8125 -3.96875 C 3.050781 -7.050781 1.671875 -12.015625 1.671875 -18.859375 L 1.671875 -25.546875 L 15.125 -25.546875 L 15.125 -17.03125 C 15.125 -13.632812 16.207031 -11.9375 18.375 -11.9375 C 19.601562 -11.9375 20.453125 -12.289062 20.921875 -13 C 21.398438 -13.71875 21.640625 -14.925781 21.640625 -16.625 C 21.640625 -18.851562 21.375 -20.695312 20.84375 -22.15625 C 20.3125 -23.613281 19.632812 -24.832031 18.8125 -25.8125 C 18 -26.800781 16.53125 -28.332031 14.40625 -30.40625 L 8.515625 -36.28125 C 3.953125 -40.738281 1.671875 -45.675781 1.671875 -51.09375 C 1.671875 -56.925781 3.007812 -61.367188 5.6875 -64.421875 C 8.363281 -67.472656 12.273438 -69 17.421875 -69 C 23.578125 -69 28.007812 -67.363281 30.71875 -64.09375 C 33.425781 -60.832031 34.78125 -55.726562 34.78125 -48.78125 L 20.84375 -48.78125 L 20.765625 -53.46875 C 20.765625 -54.375 20.515625 -55.09375 20.015625 -55.625 C 19.515625 -56.15625 18.8125 -56.421875 17.90625 -56.421875 C 16.84375 -56.421875 16.046875 -56.128906 15.515625 -55.546875 C 14.984375 -54.960938 14.71875 -54.164062 14.71875 -53.15625 C 14.71875 -50.925781 15.992188 -48.617188 18.546875 -46.234375 L 26.5 -38.59375 C 28.351562 -36.789062 29.890625 -35.078125 31.109375 -33.453125 C 32.335938 -31.835938 33.320312 -29.929688 34.0625 -27.734375 C 34.800781 -25.535156 35.171875 -22.921875 35.171875 -19.890625 C 35.171875 -13.148438 33.9375 -8.039062 31.46875 -4.5625 C 29 -1.09375 24.929688 0.640625 19.265625 0.640625 Z M 19.265625 0.640625 " />
      </g>
    </g>
  </g>
  <g fill="#db924b" fill-opacity="1">
    <g transform="translate(175.548294, 118.13915)">
      <g>
        <path
          d="M 2.78125 -68.75 L 17.109375 -68.75 L 17.109375 -52.515625 C 18.597656 -56.765625 21.4375 -58.890625 25.625 -58.890625 C 29.550781 -58.890625 32.519531 -57.640625 34.53125 -55.140625 C 36.550781 -52.648438 37.5625 -49.226562 37.5625 -44.875 L 37.5625 0 L 23.640625 0 L 23.640625 -44 C 23.640625 -45.28125 23.347656 -46.316406 22.765625 -47.109375 C 22.179688 -47.898438 21.332031 -48.296875 20.21875 -48.296875 C 19.257812 -48.296875 18.5 -47.882812 17.9375 -47.0625 C 17.382812 -46.25 17.109375 -45.257812 17.109375 -44.09375 L 17.109375 0 L 2.78125 0 Z M 2.78125 -68.75 " />
      </g>
    </g>
  </g>
  <g fill="#db924b" fill-opacity="1">
    <g transform="translate(215.73775, 118.13915)">
      <g>
        <path
          d="M 19.734375 0.640625 C 8.117188 0.640625 2.3125 -5.378906 2.3125 -17.421875 L 2.3125 -40.828125 C 2.3125 -46.335938 3.863281 -50.722656 6.96875 -53.984375 C 10.070312 -57.253906 14.328125 -58.890625 19.734375 -58.890625 C 25.148438 -58.890625 29.40625 -57.253906 32.5 -53.984375 C 35.601562 -50.722656 37.15625 -46.335938 37.15625 -40.828125 L 37.15625 -17.421875 C 37.15625 -5.378906 31.347656 0.640625 19.734375 0.640625 Z M 19.734375 -10.109375 C 20.847656 -10.109375 21.671875 -10.503906 22.203125 -11.296875 C 22.734375 -12.097656 23 -13.1875 23 -14.5625 L 23 -43.046875 C 23 -46.441406 21.910156 -48.140625 19.734375 -48.140625 C 17.554688 -48.140625 16.46875 -46.441406 16.46875 -43.046875 L 16.46875 -14.5625 C 16.46875 -13.1875 16.734375 -12.097656 17.265625 -11.296875 C 17.796875 -10.503906 18.617188 -10.109375 19.734375 -10.109375 Z M 19.734375 -10.109375 " />
      </g>
    </g>
  </g>
  <g fill="#db924b" fill-opacity="1">
    <g transform="translate(255.290547, 118.13915)">
      <g>
        <path
          d="M 2.78125 -58.25 L 16.953125 -58.25 L 16.953125 -55.140625 C 18.960938 -57.640625 21.75 -58.890625 25.3125 -58.890625 C 29.8125 -58.890625 32.953125 -57.375 34.734375 -54.34375 C 36.515625 -51.320312 37.40625 -47.132812 37.40625 -41.78125 L 37.40625 -20.21875 C 37.40625 -15.65625 37.140625 -11.925781 36.609375 -9.03125 C 36.078125 -6.132812 34.910156 -3.796875 33.109375 -2.015625 C 31.304688 -0.242188 28.570312 0.640625 24.90625 0.640625 C 21.40625 0.640625 18.753906 -0.34375 16.953125 -2.3125 L 16.953125 11.625 L 2.78125 11.625 Z M 20.296875 -10.1875 C 21.566406 -10.1875 22.382812 -10.769531 22.75 -11.9375 C 23.125 -13.101562 23.3125 -14.800781 23.3125 -17.03125 L 23.3125 -41.78125 C 23.3125 -43.789062 23.125 -45.328125 22.75 -46.390625 C 22.382812 -47.453125 21.539062 -47.984375 20.21875 -47.984375 C 18.039062 -47.984375 16.953125 -45.96875 16.953125 -41.9375 L 16.953125 -16.390625 C 16.953125 -14.429688 17.175781 -12.90625 17.625 -11.8125 C 18.070312 -10.726562 18.960938 -10.1875 20.296875 -10.1875 Z M 20.296875 -10.1875 " />
      </g>
    </g>
  </g>
  <g fill="#10576d" fill-opacity="1">
    <g transform="translate(298.28817, 118.13915)">
      <g>
        <path
          d="M 3.03125 0 L 3.03125 -68.359375 L 30.40625 -68.359375 L 30.40625 -55.140625 L 16.953125 -55.140625 L 16.953125 -41.859375 L 29.84375 -41.859375 L 29.84375 -28.96875 L 16.953125 -28.96875 L 16.953125 -13.296875 L 31.28125 -13.296875 L 31.28125 0 Z M 3.03125 0 " />
      </g>
    </g>
  </g>
  <g fill="#10576d" fill-opacity="1">
    <g transform="translate(331.076398, 118.13915)">
      <g>
        <path
          d="M 13.375 0.640625 C 8.863281 0.640625 5.769531 -0.859375 4.09375 -3.859375 C 2.425781 -6.859375 1.59375 -11.144531 1.59375 -16.71875 C 1.59375 -21.28125 2.1875 -24.78125 3.375 -27.21875 C 4.570312 -29.65625 6.226562 -31.441406 8.34375 -32.578125 C 10.46875 -33.722656 13.707031 -34.988281 18.0625 -36.375 L 21.890625 -37.640625 L 21.890625 -43.609375 C 21.890625 -45.148438 21.582031 -46.332031 20.96875 -47.15625 C 20.351562 -47.976562 19.625 -48.390625 18.78125 -48.390625 C 18.039062 -48.390625 17.390625 -48.039062 16.828125 -47.34375 C 16.273438 -46.65625 16 -45.726562 16 -44.5625 L 16 -41.0625 L 2.46875 -41.0625 L 2.46875 -42.96875 C 2.46875 -48.695312 3.804688 -52.78125 6.484375 -55.21875 C 9.160156 -57.664062 13.523438 -58.890625 19.578125 -58.890625 C 24.398438 -58.890625 28.320312 -57.628906 31.34375 -55.109375 C 34.375 -52.585938 35.890625 -49.019531 35.890625 -44.40625 L 35.890625 0 L 22.046875 0 L 22.046875 -6.921875 C 21.359375 -4.535156 20.253906 -2.675781 18.734375 -1.34375 C 17.222656 -0.0195312 15.4375 0.640625 13.375 0.640625 Z M 18.859375 -10.1875 C 19.921875 -10.1875 20.675781 -10.625 21.125 -11.5 C 21.570312 -12.375 21.796875 -13.445312 21.796875 -14.71875 L 21.796875 -30.953125 C 19.734375 -30.160156 18.207031 -29.15625 17.21875 -27.9375 C 16.238281 -26.71875 15.75 -25.019531 15.75 -22.84375 L 15.75 -15.359375 C 15.75 -11.910156 16.785156 -10.1875 18.859375 -10.1875 Z M 18.859375 -10.1875 " />
      </g>
    </g>
  </g>
  <g fill="#10576d" fill-opacity="1">
    <g transform="translate(369.515028, 118.13915)">
      <g>
        <path
          d="M 1.109375 0 L 1.109375 -8.515625 L 15.59375 -47.265625 L 1.75 -47.265625 L 1.75 -58.25 L 30 -58.25 L 30 -48.78125 L 16.3125 -10.421875 L 30.15625 -10.421875 L 30.15625 0 Z M 1.109375 0 " />
      </g>
    </g>
  </g>
  <g fill="#10576d" fill-opacity="1">
    <g transform="translate(400.234102, 118.13915)">
      <g>
        <path
          d="M 19.09375 0.640625 C 13.101562 0.640625 8.804688 -1.003906 6.203125 -4.296875 C 3.609375 -7.585938 2.3125 -12.492188 2.3125 -19.015625 L 2.3125 -42.421875 C 2.3125 -47.773438 3.847656 -51.859375 6.921875 -54.671875 C 9.992188 -57.484375 14.289062 -58.890625 19.8125 -58.890625 C 31.007812 -58.890625 36.609375 -53.398438 36.609375 -42.421875 L 36.609375 -38.203125 C 36.609375 -33.953125 36.554688 -30.503906 36.453125 -27.859375 L 16.234375 -27.859375 L 16.234375 -16.546875 C 16.234375 -14.535156 16.441406 -12.957031 16.859375 -11.8125 C 17.285156 -10.675781 18.191406 -10.109375 19.578125 -10.109375 C 20.640625 -10.109375 21.394531 -10.425781 21.84375 -11.0625 C 22.289062 -11.695312 22.554688 -12.425781 22.640625 -13.25 C 22.722656 -14.070312 22.765625 -15.28125 22.765625 -16.875 L 22.765625 -22.515625 L 36.609375 -22.515625 L 36.609375 -19.171875 C 36.609375 -12.390625 35.296875 -7.390625 32.671875 -4.171875 C 30.046875 -0.960938 25.519531 0.640625 19.09375 0.640625 Z M 22.765625 -34.78125 L 22.765625 -42.25 C 22.765625 -46.445312 21.726562 -48.546875 19.65625 -48.546875 C 17.320312 -48.546875 16.15625 -46.445312 16.15625 -42.25 L 16.15625 -34.78125 Z M 22.765625 -34.78125 " />
      </g>
    </g>
  </g>
</svg>