<svg xmlns="http://www.w3.org/2000/svg" xmlns:xlink="http://www.w3.org/1999/xlink" width="500" zoomAndPan="magnify" viewBox="0 0 375 374.999991" height="500" preserveAspectRatio="xMidYMid meet" version="1.0"><defs><g/></defs><path fill="#10576d" d="M 157.847656 61.992188 C 161.304688 61.992188 164.109375 59.1875 164.109375 55.730469 L 164.109375 43.609375 C 164.109375 27.933594 176.882812 15.160156 192.609375 15.160156 C 208.335938 15.160156 221.105469 27.933594 221.105469 43.609375 L 221.105469 55.730469 C 221.105469 59.1875 223.910156 61.992188 227.367188 61.992188 C 230.824219 61.992188 233.628906 59.1875 233.628906 55.730469 L 233.628906 45.3125 C 233.628906 23.425781 217.199219 4.191406 195.3125 2.738281 C 171.523438 1.1875 151.585938 20.121094 151.585938 43.609375 L 151.585938 55.730469 C 151.585938 59.1875 154.390625 61.992188 157.847656 61.992188 Z M 157.847656 61.992188 " fill-opacity="1" fill-rule="nonzero"/><path fill="#db924b" d="M 289.523438 224.773438 L 275.75 90.792969 C 274.648438 80.125 265.683594 72.058594 254.964844 72.058594 L 130.25 72.058594 C 119.53125 72.058594 110.566406 80.171875 109.464844 90.792969 L 106.007812 124.148438 C 103.703125 146.539062 124.992188 164.019531 146.480469 157.457031 L 158.148438 153.898438 C 171.421875 149.84375 186.246094 156.554688 191.457031 171.28125 C 193.257812 176.390625 193.007812 182 191.40625 187.207031 L 186.246094 204.035156 C 179.136719 227.277344 196.515625 250.765625 220.808594 250.765625 L 266.085938 250.765625 C 280.058594 250.71875 290.976562 238.644531 289.523438 224.773438 Z M 289.523438 224.773438 " fill-opacity="1" fill-rule="nonzero"/><path fill="#10576d" d="M 162.554688 168.226562 L 95.089844 188.808594 C 85.273438 191.816406 84.570312 205.4375 94.039062 209.445312 L 110.117188 216.207031 C 118.628906 219.8125 125.441406 226.574219 129.046875 235.140625 L 135.808594 251.21875 C 139.816406 260.683594 153.441406 259.984375 156.445312 250.167969 L 177.03125 182.699219 C 179.785156 173.835938 171.472656 165.519531 162.554688 168.226562 Z M 162.554688 168.226562 " fill-opacity="1" fill-rule="nonzero"/><g fill="#ef8121" fill-opacity="0.4"><g transform="translate(14.139626, 341.20047)"><g><path d="M 22.0625 0.734375 C 14.945312 0.734375 9.8125 -1.023438 6.65625 -4.546875 C 3.5 -8.078125 1.921875 -13.765625 1.921875 -21.609375 L 1.921875 -29.265625 L 17.328125 -29.265625 L 17.328125 -19.515625 C 17.328125 -15.617188 18.570312 -13.671875 21.0625 -13.671875 C 22.457031 -13.671875 23.425781 -14.082031 23.96875 -14.90625 C 24.519531 -15.726562 24.796875 -17.113281 24.796875 -19.0625 C 24.796875 -21.613281 24.488281 -23.722656 23.875 -25.390625 C 23.269531 -27.066406 22.5 -28.460938 21.5625 -29.578125 C 20.625 -30.703125 18.9375 -32.453125 16.5 -34.828125 L 9.75 -41.578125 C 4.53125 -46.679688 1.921875 -52.332031 1.921875 -58.53125 C 1.921875 -65.21875 3.453125 -70.304688 6.515625 -73.796875 C 9.585938 -77.296875 14.070312 -79.046875 19.96875 -79.046875 C 27.019531 -79.046875 32.09375 -77.175781 35.1875 -73.4375 C 38.289062 -69.695312 39.84375 -63.847656 39.84375 -55.890625 L 23.890625 -55.890625 L 23.796875 -61.265625 C 23.796875 -62.296875 23.503906 -63.113281 22.921875 -63.71875 C 22.347656 -64.332031 21.546875 -64.640625 20.515625 -64.640625 C 19.296875 -64.640625 18.378906 -64.304688 17.765625 -63.640625 C 17.160156 -62.972656 16.859375 -62.0625 16.859375 -60.90625 C 16.859375 -58.351562 18.320312 -55.707031 21.25 -52.96875 L 30.359375 -44.21875 C 32.484375 -42.15625 34.242188 -40.195312 35.640625 -38.34375 C 37.046875 -36.488281 38.171875 -34.296875 39.015625 -31.765625 C 39.867188 -29.242188 40.296875 -26.253906 40.296875 -22.796875 C 40.296875 -15.078125 38.878906 -9.222656 36.046875 -5.234375 C 33.222656 -1.253906 28.5625 0.734375 22.0625 0.734375 Z M 22.0625 0.734375 "/></g></g></g><g fill="#ef8121" fill-opacity="0.4"><g transform="translate(56.161496, 341.20047)"><g><path d="M 3.1875 -78.765625 L 19.609375 -78.765625 L 19.609375 -60.171875 C 21.304688 -65.035156 24.554688 -67.46875 29.359375 -67.46875 C 33.859375 -67.46875 37.257812 -66.035156 39.5625 -63.171875 C 41.875 -60.316406 43.03125 -56.398438 43.03125 -51.421875 L 43.03125 0 L 27.078125 0 L 27.078125 -50.421875 C 27.078125 -51.878906 26.742188 -53.0625 26.078125 -53.96875 C 25.410156 -54.882812 24.4375 -55.34375 23.15625 -55.34375 C 22.0625 -55.34375 21.195312 -54.867188 20.5625 -53.921875 C 19.925781 -52.984375 19.609375 -51.847656 19.609375 -50.515625 L 19.609375 0 L 3.1875 0 Z M 3.1875 -78.765625 "/></g></g></g><g fill="#ef8121" fill-opacity="0.4"><g transform="translate(102.194122, 341.20047)"><g><path d="M 22.609375 0.734375 C 9.296875 0.734375 2.640625 -6.164062 2.640625 -19.96875 L 2.640625 -46.765625 C 2.640625 -53.085938 4.414062 -58.117188 7.96875 -61.859375 C 11.53125 -65.597656 16.410156 -67.46875 22.609375 -67.46875 C 28.804688 -67.46875 33.679688 -65.597656 37.234375 -61.859375 C 40.796875 -58.117188 42.578125 -53.085938 42.578125 -46.765625 L 42.578125 -19.96875 C 42.578125 -6.164062 35.921875 0.734375 22.609375 0.734375 Z M 22.609375 -11.578125 C 23.890625 -11.578125 24.832031 -12.03125 25.4375 -12.9375 C 26.039062 -13.851562 26.34375 -15.101562 26.34375 -16.6875 L 26.34375 -49.328125 C 26.34375 -53.210938 25.097656 -55.15625 22.609375 -55.15625 C 20.117188 -55.15625 18.875 -53.210938 18.875 -49.328125 L 18.875 -16.6875 C 18.875 -15.101562 19.175781 -13.851562 19.78125 -12.9375 C 20.394531 -12.03125 21.335938 -11.578125 22.609375 -11.578125 Z M 22.609375 -11.578125 "/></g></g></g><g fill="#ef8121" fill-opacity="0.4"><g transform="translate(147.49753, 341.20047)"><g><path d="M 3.1875 -66.734375 L 19.421875 -66.734375 L 19.421875 -63.1875 C 21.734375 -66.039062 24.925781 -67.46875 29 -67.46875 C 34.164062 -67.46875 37.765625 -65.734375 39.796875 -62.265625 C 41.828125 -58.804688 42.84375 -54.003906 42.84375 -47.859375 L 42.84375 -23.15625 C 42.84375 -17.925781 42.539062 -13.65625 41.9375 -10.34375 C 41.332031 -7.03125 39.992188 -4.351562 37.921875 -2.3125 C 35.859375 -0.28125 32.726562 0.734375 28.53125 0.734375 C 24.519531 0.734375 21.484375 -0.390625 19.421875 -2.640625 L 19.421875 13.3125 L 3.1875 13.3125 Z M 23.25 -11.671875 C 24.707031 -11.671875 25.648438 -12.335938 26.078125 -13.671875 C 26.503906 -15.015625 26.71875 -16.960938 26.71875 -19.515625 L 26.71875 -47.859375 C 26.71875 -50.171875 26.503906 -51.9375 26.078125 -53.15625 C 25.648438 -54.375 24.675781 -54.984375 23.15625 -54.984375 C 20.664062 -54.984375 19.421875 -52.671875 19.421875 -48.046875 L 19.421875 -18.78125 C 19.421875 -16.53125 19.675781 -14.78125 20.1875 -13.53125 C 20.707031 -12.289062 21.726562 -11.671875 23.25 -11.671875 Z M 23.25 -11.671875 "/></g></g></g><g fill="#db924b" fill-opacity="1"><g transform="translate(14.139626, 341.20047)"><g><path d="M 22.0625 0.734375 C 14.945312 0.734375 9.8125 -1.023438 6.65625 -4.546875 C 3.5 -8.078125 1.921875 -13.765625 1.921875 -21.609375 L 1.921875 -29.265625 L 17.328125 -29.265625 L 17.328125 -19.515625 C 17.328125 -15.617188 18.570312 -13.671875 21.0625 -13.671875 C 22.457031 -13.671875 23.425781 -14.082031 23.96875 -14.90625 C 24.519531 -15.726562 24.796875 -17.113281 24.796875 -19.0625 C 24.796875 -21.613281 24.488281 -23.722656 23.875 -25.390625 C 23.269531 -27.066406 22.5 -28.460938 21.5625 -29.578125 C 20.625 -30.703125 18.9375 -32.453125 16.5 -34.828125 L 9.75 -41.578125 C 4.53125 -46.679688 1.921875 -52.332031 1.921875 -58.53125 C 1.921875 -65.21875 3.453125 -70.304688 6.515625 -73.796875 C 9.585938 -77.296875 14.070312 -79.046875 19.96875 -79.046875 C 27.019531 -79.046875 32.09375 -77.175781 35.1875 -73.4375 C 38.289062 -69.695312 39.84375 -63.847656 39.84375 -55.890625 L 23.890625 -55.890625 L 23.796875 -61.265625 C 23.796875 -62.296875 23.503906 -63.113281 22.921875 -63.71875 C 22.347656 -64.332031 21.546875 -64.640625 20.515625 -64.640625 C 19.296875 -64.640625 18.378906 -64.304688 17.765625 -63.640625 C 17.160156 -62.972656 16.859375 -62.0625 16.859375 -60.90625 C 16.859375 -58.351562 18.320312 -55.707031 21.25 -52.96875 L 30.359375 -44.21875 C 32.484375 -42.15625 34.242188 -40.195312 35.640625 -38.34375 C 37.046875 -36.488281 38.171875 -34.296875 39.015625 -31.765625 C 39.867188 -29.242188 40.296875 -26.253906 40.296875 -22.796875 C 40.296875 -15.078125 38.878906 -9.222656 36.046875 -5.234375 C 33.222656 -1.253906 28.5625 0.734375 22.0625 0.734375 Z M 22.0625 0.734375 "/></g></g></g><g fill="#db924b" fill-opacity="1"><g transform="translate(56.161496, 341.20047)"><g><path d="M 3.1875 -78.765625 L 19.609375 -78.765625 L 19.609375 -60.171875 C 21.304688 -65.035156 24.554688 -67.46875 29.359375 -67.46875 C 33.859375 -67.46875 37.257812 -66.035156 39.5625 -63.171875 C 41.875 -60.316406 43.03125 -56.398438 43.03125 -51.421875 L 43.03125 0 L 27.078125 0 L 27.078125 -50.421875 C 27.078125 -51.878906 26.742188 -53.0625 26.078125 -53.96875 C 25.410156 -54.882812 24.4375 -55.34375 23.15625 -55.34375 C 22.0625 -55.34375 21.195312 -54.867188 20.5625 -53.921875 C 19.925781 -52.984375 19.609375 -51.847656 19.609375 -50.515625 L 19.609375 0 L 3.1875 0 Z M 3.1875 -78.765625 "/></g></g></g><g fill="#db924b" fill-opacity="1"><g transform="translate(102.194122, 341.20047)"><g><path d="M 22.609375 0.734375 C 9.296875 0.734375 2.640625 -6.164062 2.640625 -19.96875 L 2.640625 -46.765625 C 2.640625 -53.085938 4.414062 -58.117188 7.96875 -61.859375 C 11.53125 -65.597656 16.410156 -67.46875 22.609375 -67.46875 C 28.804688 -67.46875 33.679688 -65.597656 37.234375 -61.859375 C 40.796875 -58.117188 42.578125 -53.085938 42.578125 -46.765625 L 42.578125 -19.96875 C 42.578125 -6.164062 35.921875 0.734375 22.609375 0.734375 Z M 22.609375 -11.578125 C 23.890625 -11.578125 24.832031 -12.03125 25.4375 -12.9375 C 26.039062 -13.851562 26.34375 -15.101562 26.34375 -16.6875 L 26.34375 -49.328125 C 26.34375 -53.210938 25.097656 -55.15625 22.609375 -55.15625 C 20.117188 -55.15625 18.875 -53.210938 18.875 -49.328125 L 18.875 -16.6875 C 18.875 -15.101562 19.175781 -13.851562 19.78125 -12.9375 C 20.394531 -12.03125 21.335938 -11.578125 22.609375 -11.578125 Z M 22.609375 -11.578125 "/></g></g></g><g fill="#db924b" fill-opacity="1"><g transform="translate(147.49753, 341.20047)"><g><path d="M 3.1875 -66.734375 L 19.421875 -66.734375 L 19.421875 -63.1875 C 21.734375 -66.039062 24.925781 -67.46875 29 -67.46875 C 34.164062 -67.46875 37.765625 -65.734375 39.796875 -62.265625 C 41.828125 -58.804688 42.84375 -54.003906 42.84375 -47.859375 L 42.84375 -23.15625 C 42.84375 -17.925781 42.539062 -13.65625 41.9375 -10.34375 C 41.332031 -7.03125 39.992188 -4.351562 37.921875 -2.3125 C 35.859375 -0.28125 32.726562 0.734375 28.53125 0.734375 C 24.519531 0.734375 21.484375 -0.390625 19.421875 -2.640625 L 19.421875 13.3125 L 3.1875 13.3125 Z M 23.25 -11.671875 C 24.707031 -11.671875 25.648438 -12.335938 26.078125 -13.671875 C 26.503906 -15.015625 26.71875 -16.960938 26.71875 -19.515625 L 26.71875 -47.859375 C 26.71875 -50.171875 26.503906 -51.9375 26.078125 -53.15625 C 25.648438 -54.375 24.675781 -54.984375 23.15625 -54.984375 C 20.664062 -54.984375 19.421875 -52.671875 19.421875 -48.046875 L 19.421875 -18.78125 C 19.421875 -16.53125 19.675781 -14.78125 20.1875 -13.53125 C 20.707031 -12.289062 21.726562 -11.671875 23.25 -11.671875 Z M 23.25 -11.671875 "/></g></g></g><g fill="#10576d" fill-opacity="1"><g transform="translate(197.448155, 341.20047)"><g><path d="M 3.46875 0 L 3.46875 -78.3125 L 34.828125 -78.3125 L 34.828125 -63.1875 L 19.421875 -63.1875 L 19.421875 -47.953125 L 34.1875 -47.953125 L 34.1875 -33.1875 L 19.421875 -33.1875 L 19.421875 -15.21875 L 35.828125 -15.21875 L 35.828125 0 Z M 3.46875 0 "/></g></g></g><g fill="#10576d" fill-opacity="1"><g transform="translate(235.003485, 341.20047)"><g><path d="M 15.3125 0.734375 C 10.144531 0.734375 6.601562 -0.984375 4.6875 -4.421875 C 2.78125 -7.859375 1.828125 -12.765625 1.828125 -19.140625 C 1.828125 -24.367188 2.507812 -28.378906 3.875 -31.171875 C 5.238281 -33.972656 7.132812 -36.023438 9.5625 -37.328125 C 12 -38.640625 15.710938 -40.085938 20.703125 -41.671875 L 25.078125 -43.125 L 25.078125 -49.96875 C 25.078125 -51.726562 24.722656 -53.078125 24.015625 -54.015625 C 23.316406 -54.960938 22.484375 -55.4375 21.515625 -55.4375 C 20.660156 -55.4375 19.914062 -55.039062 19.28125 -54.25 C 18.644531 -53.457031 18.328125 -52.394531 18.328125 -51.0625 L 18.328125 -47.046875 L 2.828125 -47.046875 L 2.828125 -49.234375 C 2.828125 -55.796875 4.359375 -60.472656 7.421875 -63.265625 C 10.492188 -66.066406 15.492188 -67.46875 22.421875 -67.46875 C 27.953125 -67.46875 32.453125 -66.023438 35.921875 -63.140625 C 39.390625 -60.253906 41.125 -56.164062 41.125 -50.875 L 41.125 0 L 25.25 0 L 25.25 -7.9375 C 24.457031 -5.195312 23.195312 -3.066406 21.46875 -1.546875 C 19.738281 -0.0234375 17.6875 0.734375 15.3125 0.734375 Z M 21.609375 -11.671875 C 22.828125 -11.671875 23.691406 -12.171875 24.203125 -13.171875 C 24.722656 -14.171875 24.984375 -15.398438 24.984375 -16.859375 L 24.984375 -35.46875 C 22.609375 -34.550781 20.859375 -33.394531 19.734375 -32 C 18.609375 -30.601562 18.046875 -28.660156 18.046875 -26.171875 L 18.046875 -17.59375 C 18.046875 -13.644531 19.234375 -11.671875 21.609375 -11.671875 Z M 21.609375 -11.671875 "/></g></g></g><g fill="#10576d" fill-opacity="1"><g transform="translate(279.030734, 341.20047)"><g><path d="M 1.28125 0 L 1.28125 -9.75 L 17.875 -54.15625 L 2 -54.15625 L 2 -66.734375 L 34.375 -66.734375 L 34.375 -55.890625 L 18.6875 -11.9375 L 34.546875 -11.9375 L 34.546875 0 Z M 1.28125 0 "/></g></g></g><g fill="#10576d" fill-opacity="1"><g transform="translate(314.216077, 341.20047)"><g><path d="M 21.875 0.734375 C 15.007812 0.734375 10.085938 -1.148438 7.109375 -4.921875 C 4.128906 -8.691406 2.640625 -14.316406 2.640625 -21.796875 L 2.640625 -48.59375 C 2.640625 -54.726562 4.398438 -59.40625 7.921875 -62.625 C 11.453125 -65.851562 16.378906 -67.46875 22.703125 -67.46875 C 35.523438 -67.46875 41.9375 -61.175781 41.9375 -48.59375 L 41.9375 -43.765625 C 41.9375 -38.898438 41.875 -34.945312 41.75 -31.90625 L 18.59375 -31.90625 L 18.59375 -18.96875 C 18.59375 -16.65625 18.835938 -14.84375 19.328125 -13.53125 C 19.816406 -12.226562 20.847656 -11.578125 22.421875 -11.578125 C 23.640625 -11.578125 24.503906 -11.941406 25.015625 -12.671875 C 25.535156 -13.398438 25.84375 -14.234375 25.9375 -15.171875 C 26.03125 -16.117188 26.078125 -17.503906 26.078125 -19.328125 L 26.078125 -25.796875 L 41.9375 -25.796875 L 41.9375 -21.96875 C 41.9375 -14.1875 40.429688 -8.457031 37.421875 -4.78125 C 34.410156 -1.101562 29.226562 0.734375 21.875 0.734375 Z M 26.078125 -39.84375 L 26.078125 -48.40625 C 26.078125 -53.207031 24.890625 -55.609375 22.515625 -55.609375 C 19.847656 -55.609375 18.515625 -53.207031 18.515625 -48.40625 L 18.515625 -39.84375 Z M 26.078125 -39.84375 "/></g></g></g></svg>